<?xml version="1.0" encoding="UTF-8"?>
<svg id="Layer_1" xmlns="http://www.w3.org/2000/svg" version="1.1" viewBox="0 0 320 320">
  <!-- Generator: Adobe Illustrator 29.0.0, SVG Export Plug-In . SVG Version: 2.1.0 Build 186)  -->
  <defs>
    <style>
      .st0, .st1 {
        fill: #231f20;
      }

      .st2 {
        font-size: 11px;
      }

      .st2, .st3 {
        fill: #6d6e71;
      }

      .st2, .st3, .st1 {
        font-family: FixedsysExcelsiorIIIb, 'Fixedsys Excelsior';
      }

      .st3 {
        font-size: 12px;
      }

      .st4 {
        fill: none;
        stroke: #231f20;
        stroke-miterlimit: 10;
        stroke-width: 2px;
      }

      .st1 {
        font-size: 80px;
      }
    </style>
  </defs>
  <g>
    <path class="st0" d="M318,2v315.3H2.7V2h315.3M320,0H.7v319.3h319.3V0h0Z"/>
    <line class="st4" x1=".7" y1="212.9" x2="320" y2="212.9"/>
    <line class="st4" x1=".7" y1="106.4" x2="320" y2="106.4"/>
    <line class="st4" x1="213.6" x2="213.6" y2="319.3"/>
    <line class="st4" x1="107.1" x2="107.1" y2="319.3"/>
  </g>
  <text class="st1" transform="translate(140 178.9)"><tspan x="0" y="0">C</tspan></text>
  <text class="st1" transform="translate(246.5 178.8)"><tspan x="0" y="0">R</tspan></text>
  <text class="st1" transform="translate(33.9 178.8)"><tspan x="0" y="0">L</tspan></text>
  <text class="st1" transform="translate(139.8 291.4)"><tspan x="0" y="0">B</tspan></text>
  <text class="st1" transform="translate(226.3 291.2)"><tspan x="0" y="0">BR</tspan></text>
  <text class="st1" transform="translate(13.7 291.3)"><tspan x="0" y="0">BL</tspan></text>
  <text class="st1" transform="translate(140.1 71.7)"><tspan x="0" y="0">T</tspan></text>
  <text class="st1" transform="translate(226.6 71.6)"><tspan x="0" y="0">TR</tspan></text>
  <text class="st1" transform="translate(14.1 71.6)"><tspan x="0" y="0">TL</tspan></text>
  <text class="st3" transform="translate(29.9 89.7)"><tspan x="0" y="0">top left</tspan></text>
  <text class="st3" transform="translate(150.6 89.7)"><tspan x="0" y="0">top</tspan></text>
  <text class="st3" transform="translate(239 89.7)"><tspan x="0" y="0">top right</tspan></text>
  <text class="st3" transform="translate(41.1 198.4)"><tspan x="0" y="0">left</tspan></text>
  <text class="st2" transform="translate(114.8 197.9)"><tspan x="0" y="0">center / current</tspan></text>
  <text class="st3" transform="translate(250.3 198.4)"><tspan x="0" y="0">right</tspan></text>
  <text class="st3" transform="translate(20.5 308.2)"><tspan x="0" y="0">bottom left</tspan></text>
  <text class="st3" transform="translate(141.2 308.2)"><tspan x="0" y="0">bottom</tspan></text>
  <text class="st3" transform="translate(229.7 308.2)"><tspan x="0" y="0">bottom right</tspan></text>
</svg>